<?xml version="1.0" encoding="UTF-8" standalone="no"?>
<!-- Created with Inkscape (http://www.inkscape.org/) -->

<svg
   xmlns:dc="http://purl.org/dc/elements/1.1/"
   xmlns:cc="http://creativecommons.org/ns#"
   xmlns:rdf="http://www.w3.org/1999/02/22-rdf-syntax-ns#"
   xmlns:svg="http://www.w3.org/2000/svg"
   xmlns="http://www.w3.org/2000/svg"
   xmlns:sodipodi="http://sodipodi.sourceforge.net/DTD/sodipodi-0.dtd"
   xmlns:inkscape="http://www.inkscape.org/namespaces/inkscape"
   width="41.266731mm"
   height="21.703552mm"
   viewBox="0 0 146.2207 76.90235"
   id="svg4184"
   version="1.1"
   inkscape:version="0.91 r13725"
   sodipodi:docname="404_.svg">
  <defs
     id="defs4186" />
  <sodipodi:namedview
     id="base"
     pagecolor="#ffffff"
     bordercolor="#666666"
     borderopacity="1.0"
     inkscape:pageopacity="0.0"
     inkscape:pageshadow="2"
     inkscape:zoom="2.8"
     inkscape:cx="71.497268"
     inkscape:cy="33.191327"
     inkscape:document-units="px"
     inkscape:current-layer="layer1"
     showgrid="false"
     fit-margin-top="0"
     fit-margin-left="0"
     fit-margin-right="0"
     fit-margin-bottom="0"
     inkscape:window-width="1366"
     inkscape:window-height="705"
     inkscape:window-x="-8"
     inkscape:window-y="-8"
     inkscape:window-maximized="1" />
  <metadata
     id="metadata4189">
    <rdf:RDF>
      <cc:Work
         rdf:about="">
        <dc:format>image/svg+xml</dc:format>
        <dc:type
           rdf:resource="http://purl.org/dc/dcmitype/StillImage" />
        <dc:title></dc:title>
      </cc:Work>
    </rdf:RDF>
  </metadata>
  <g
     inkscape:label="Layer 1"
     inkscape:groupmode="layer"
     id="layer1"
     transform="translate(0,-975.45985)">
    <path
       inkscape:connector-curvature="0"
       style="opacity:1;fill:#000000;fill-opacity:1;fill-rule:nonzero;stroke:none;stroke-width:20;stroke-linecap:round;stroke-linejoin:round;stroke-miterlimit:4;stroke-dasharray:none;stroke-opacity:1;paint-order:stroke markers fill"
       d="m 0,975.45985 0,76.90235 146.2207,0 0,-76.90235 -146.2207,0 z m 23.48828,11.15039 10.05079,3.75 -12.22461,29.77536 9.375,0 1.27539,-12.5254 10.04882,0 0,12.5254 5.17579,0 0,8.8496 -5.17579,0 0,10.9512 -11.32421,0 -0.0762,-10.9512 -21.52344,0 0,-7.7988 14.39844,-34.57616 z m 49.697273,0 c 6.15,0 10.79922,2.375 13.94922,7.125 3.2,4.75 4.80078,11.45156 4.80078,20.10156 0,8.7 -1.60078,15.45 -4.80078,20.25 -3.15,4.75 -7.79922,7.125 -13.94922,7.125 -6.150003,0 -10.825393,-2.375 -14.025393,-7.125 -3.15,-4.8 -4.72461,-11.55 -4.72461,-20.25 0,-8.65 1.57461,-15.35156 4.72461,-20.10156 3.2,-4.75 7.87539,-7.125 14.025393,-7.125 z m 40.244137,0 10.05078,3.75 -12.22461,29.77536 9.375,0 1.27539,-12.5254 10.04883,0 0,12.5254 5.17578,0 0,8.8496 -5.17578,0 0,10.9512 -11.32422,0 -0.0762,-10.9512 -21.523437,0 0,-7.7988 14.398437,-34.57616 z m -40.244137,8.625 c -2.500003,0 -4.350783,1.45157 -5.550783,4.35157 -1.15,2.84999 -1.72461,7.59999 -1.72461,14.24999 0,6.85 0.57461,11.6988 1.72461,14.5488 1.2,2.85 3.05078,4.2754 5.550783,4.2754 2.55,0 4.37461,-1.4254 5.47461,-4.2754 1.15,-2.85 1.72461,-7.6988 1.72461,-14.5488 0,-6.75 -0.60078,-11.5262 -1.80078,-14.32617 -1.15,-2.85 -2.94844,-4.27539 -5.39844,-4.27539 z m -0.0762,13.95116 c 1.400003,0 2.575393,0.4738 3.525393,1.4238 0.95,0.95 1.42578,2.1012 1.42578,3.4512 0,1.4 -0.47578,2.5754 -1.42578,3.5254 -0.95,0.95 -2.12539,1.4238 -3.525393,1.4238 -1.4,0 -2.57539,-0.4738 -3.52539,-1.4238 -0.9,-0.95 -1.34961,-2.1254 -1.34961,-3.5254 0,-1.35 0.44961,-2.5012 1.34961,-3.4512 0.95,-0.95 2.12539,-1.4238 3.52539,-1.4238 z"
       id="rect4708-1" />
  </g>
</svg>
