<?xml version="1.0" encoding="UTF-8" standalone="no"?>
<!-- Created with Inkscape (http://www.inkscape.org/) -->

<svg
   xmlns:dc="http://purl.org/dc/elements/1.1/"
   xmlns:cc="http://creativecommons.org/ns#"
   xmlns:rdf="http://www.w3.org/1999/02/22-rdf-syntax-ns#"
   xmlns:svg="http://www.w3.org/2000/svg"
   xmlns="http://www.w3.org/2000/svg"
   xmlns:sodipodi="http://sodipodi.sourceforge.net/DTD/sodipodi-0.dtd"
   xmlns:inkscape="http://www.inkscape.org/namespaces/inkscape"
   sodipodi:docname="404_src.svg"
   inkscape:version="0.91 r13725"
   version="1.1"
   id="svg2"
   viewBox="0 0 744.09448819 1052.3622047"
   height="297mm"
   width="210mm">
  <sodipodi:namedview
     inkscape:window-maximized="1"
     inkscape:window-y="-8"
     inkscape:window-x="-8"
     inkscape:window-height="705"
     inkscape:window-width="1366"
     inkscape:snap-bbox-midpoints="true"
     inkscape:snap-bbox="true"
     showgrid="false"
     inkscape:current-layer="layer1"
     inkscape:document-units="px"
     inkscape:cy="886.29255"
     inkscape:cx="262.4029"
     inkscape:zoom="1.4"
     inkscape:pageshadow="2"
     inkscape:pageopacity="0.0"
     borderopacity="1.0"
     bordercolor="#666666"
     pagecolor="#ffffff"
     id="base" />
  <defs
     id="defs4" />
  <metadata
     id="metadata7">
    <rdf:RDF>
      <cc:Work
         rdf:about="">
        <dc:format>image/svg+xml</dc:format>
        <dc:type
           rdf:resource="http://purl.org/dc/dcmitype/StillImage" />
        <dc:title />
      </cc:Work>
    </rdf:RDF>
  </metadata>
  <g
     id="layer1"
     inkscape:groupmode="layer"
     inkscape:label="Layer 1">
    <path
       id="rect4156"
       d="M 276.35742 62.583984 L 276.35742 206.15625 L 532.07227 206.15625 L 532.07227 62.583984 L 276.35742 62.583984 z M 341.6543 98.820312 L 348.6543 101.82031 L 330.35352 145.32031 L 350.1543 145.32031 L 350.85352 125.82031 L 358.1543 125.82031 L 358.1543 145.32031 L 367.05273 145.32031 L 367.05273 152.11914 L 358.1543 152.11914 L 358.1543 168.82031 L 350.05273 168.82031 L 350.05273 152.11914 L 321.45312 152.11914 L 321.45312 145.91992 L 341.6543 98.820312 z M 404.21484 98.820312 C 411.54818 98.820312 417.11406 101.8862 420.91406 108.01953 C 424.78073 114.0862 426.71484 122.85365 426.71484 134.32031 C 426.71484 145.85365 424.78073 154.68698 420.91406 160.82031 C 417.11406 166.88698 411.54818 169.91992 404.21484 169.91992 C 396.88151 169.91992 391.28073 166.88698 387.41406 160.82031 C 383.61406 154.68698 381.71484 145.85365 381.71484 134.32031 C 381.71484 122.85365 383.61406 114.0862 387.41406 108.01953 C 391.28073 101.8862 396.88151 98.820313 404.21484 98.820312 z M 461.57617 98.820312 L 468.57617 101.82031 L 450.27539 145.32031 L 470.07617 145.32031 L 470.77539 125.82031 L 478.07617 125.82031 L 478.07617 145.32031 L 486.97461 145.32031 L 486.97461 152.11914 L 478.07617 152.11914 L 478.07617 168.82031 L 469.97461 168.82031 L 469.97461 152.11914 L 441.375 152.11914 L 441.375 145.91992 L 461.57617 98.820312 z M 404.21484 105.61914 C 395.08151 105.61914 390.51367 115.18698 390.51367 134.32031 C 390.51367 153.52031 395.08151 163.11914 404.21484 163.11914 C 413.34818 163.11914 417.91406 153.52031 417.91406 134.32031 C 417.91406 115.18698 413.34818 105.61914 404.21484 105.61914 z M 404.21484 127.82031 C 406.08151 127.82031 407.6474 128.45404 408.91406 129.7207 C 410.18073 130.98737 410.81445 132.52031 410.81445 134.32031 C 410.81445 136.18698 410.18073 137.75286 408.91406 139.01953 C 407.6474 140.2862 406.08151 140.91992 404.21484 140.91992 C 402.34818 140.91992 400.78034 140.2862 399.51367 139.01953 C 398.31367 137.75286 397.71484 136.18698 397.71484 134.32031 C 397.71484 132.52031 398.31367 130.98737 399.51367 129.7207 C 400.78034 128.45404 402.34818 127.82031 404.21484 127.82031 z "
       style="opacity:1;fill:#000000;fill-opacity:1;fill-rule:nonzero;stroke:none;stroke-width:20;stroke-linecap:round;stroke-linejoin:round;stroke-miterlimit:4;stroke-dasharray:none;stroke-opacity:1;paint-order:stroke markers fill" />
    <rect
       y="60.933636"
       x="10"
       height="76.901924"
       width="146.21997"
       id="rect4708"
       style="opacity:1;fill:#000000;fill-opacity:1;fill-rule:nonzero;stroke:none;stroke-width:20;stroke-linecap:round;stroke-linejoin:round;stroke-miterlimit:4;stroke-dasharray:none;stroke-opacity:1;paint-order:stroke markers fill" />
    <flowRoot
       transform="translate(5.7142857,-9.2857143)"
       style="font-style:normal;font-weight:normal;font-size:75px;line-height:125%;font-family:sans-serif;letter-spacing:0px;word-spacing:0px;fill:#000000;fill-opacity:1;stroke:none;stroke-width:1px;stroke-linecap:butt;stroke-linejoin:miter;stroke-opacity:1"
       id="flowRoot4710"
       xml:space="preserve"><flowRegion
         id="flowRegion4712"><rect
           style="font-size:75px"
           y="61.647915"
           x="10"
           height="89.64286"
           width="147.85713"
           id="rect4714" /></flowRegion><flowPara
         style="font-style:normal;font-variant:normal;font-weight:bold;font-stretch:normal;font-size:75px;font-family:'Fira Code';-inkscape-font-specification:'Fira Code Bold';fill:#00ff00;fill-opacity:0.77777782"
         id="flowPara4716">404</flowPara></flowRoot>    <path
       style="opacity:1;fill:#000000;fill-opacity:1;fill-rule:nonzero;stroke:none;stroke-width:20;stroke-linecap:round;stroke-linejoin:round;stroke-miterlimit:4;stroke-dasharray:none;stroke-opacity:1;paint-order:stroke markers fill"
       d="M 11.175781 152.48242 L 11.175781 229.38477 L 157.39648 229.38477 L 157.39648 152.48242 L 11.175781 152.48242 z M 34.664062 163.63281 L 44.714844 167.38281 L 32.490234 197.1582 L 41.865234 197.1582 L 43.140625 184.63281 L 53.189453 184.63281 L 53.189453 197.1582 L 58.365234 197.1582 L 58.365234 206.00781 L 53.189453 206.00781 L 53.189453 216.95898 L 41.865234 216.95898 L 41.789062 206.00781 L 20.265625 206.00781 L 20.265625 198.20898 L 34.664062 163.63281 z M 84.361328 163.63281 C 90.511328 163.63281 95.160547 166.00781 98.310547 170.75781 C 101.51055 175.50781 103.11133 182.20938 103.11133 190.85938 C 103.11133 199.55938 101.51055 206.30937 98.310547 211.10938 C 95.160547 215.85938 90.511328 218.23438 84.361328 218.23438 C 78.211328 218.23438 73.535938 215.85938 70.335938 211.10938 C 67.185937 206.30937 65.611328 199.55938 65.611328 190.85938 C 65.611328 182.20937 67.185937 175.50781 70.335938 170.75781 C 73.535937 166.00781 78.211328 163.63281 84.361328 163.63281 z M 124.60547 163.63281 L 134.65625 167.38281 L 122.43164 197.1582 L 131.80664 197.1582 L 133.08203 184.63281 L 143.13086 184.63281 L 143.13086 197.1582 L 148.30664 197.1582 L 148.30664 206.00781 L 143.13086 206.00781 L 143.13086 216.95898 L 131.80664 216.95898 L 131.73047 206.00781 L 110.20703 206.00781 L 110.20703 198.20898 L 124.60547 163.63281 z M 84.361328 172.25781 C 81.861328 172.25781 80.010547 173.70938 78.810547 176.60938 C 77.660547 179.45938 77.085938 184.20937 77.085938 190.85938 C 77.085938 197.70938 77.660547 202.5582 78.810547 205.4082 C 80.010547 208.2582 81.861328 209.68359 84.361328 209.68359 C 86.911328 209.68359 88.735938 208.2582 89.835938 205.4082 C 90.985937 202.5582 91.560547 197.70937 91.560547 190.85938 C 91.560547 184.10938 90.959766 179.3332 89.759766 176.5332 C 88.609766 173.6832 86.811328 172.25781 84.361328 172.25781 z M 84.285156 186.20898 C 85.685156 186.20898 86.860547 186.68281 87.810547 187.63281 C 88.760547 188.58281 89.236328 189.73398 89.236328 191.08398 C 89.236328 192.48398 88.760547 193.65937 87.810547 194.60938 C 86.860547 195.55938 85.685156 196.0332 84.285156 196.0332 C 82.885156 196.0332 81.709766 195.55938 80.759766 194.60938 C 79.859766 193.65938 79.410156 192.48398 79.410156 191.08398 C 79.410156 189.73398 79.859766 188.58281 80.759766 187.63281 C 81.709766 186.68281 82.885156 186.20898 84.285156 186.20898 z "
       id="rect4708-1" />
  </g>
</svg>
