<?xml version="1.0" encoding="UTF-8" standalone="no"?>
<!-- Generator: Adobe Illustrator 16.0.0, SVG Export Plug-In . SVG Version: 6.00 Build 0)  -->

<svg
   xmlns:dc="http://purl.org/dc/elements/1.1/"
   xmlns:cc="http://creativecommons.org/ns#"
   xmlns:rdf="http://www.w3.org/1999/02/22-rdf-syntax-ns#"
   xmlns:svg="http://www.w3.org/2000/svg"
   xmlns="http://www.w3.org/2000/svg"
   xmlns:sodipodi="http://sodipodi.sourceforge.net/DTD/sodipodi-0.dtd"
   xmlns:inkscape="http://www.inkscape.org/namespaces/inkscape"
   version="1.1"
   id="Capa_1"
   x="0px"
   y="0px"
   width="394.73303"
   height="349.32684"
   viewBox="0 0 394.73302 349.32684"
   xml:space="preserve"
   inkscape:version="0.91 r13725"
   sodipodi:docname="rabbit_.svg"><metadata
     id="metadata45"><rdf:RDF><cc:Work
         rdf:about=""><dc:format>image/svg+xml</dc:format><dc:type
           rdf:resource="http://purl.org/dc/dcmitype/StillImage" /><dc:title></dc:title></cc:Work></rdf:RDF></metadata><defs
     id="defs43" /><sodipodi:namedview
     pagecolor="#ffffff"
     bordercolor="#666666"
     borderopacity="1"
     objecttolerance="10"
     gridtolerance="10"
     guidetolerance="10"
     inkscape:pageopacity="0"
     inkscape:pageshadow="2"
     inkscape:window-width="1366"
     inkscape:window-height="705"
     id="namedview41"
     showgrid="false"
     fit-margin-top="0"
     fit-margin-left="0"
     fit-margin-right="0"
     fit-margin-bottom="0"
     inkscape:zoom="0.84766465"
     inkscape:cx="259.93341"
     inkscape:cy="203.89905"
     inkscape:window-x="-8"
     inkscape:window-y="-8"
     inkscape:window-maximized="1"
     inkscape:current-layer="g3" /><g
     id="g3"
     transform="translate(0,-44.407169)"><g
       id="g5"
       transform="translate(0.5,22.20352)"
       style="fill:#ffffff;fill-opacity:1"><g
         id="g7"
         style="fill:#ffffff;fill-opacity:1"><path
           d="M 363.05,128.146 C 351.761,111.753 334.047,103.21297 314.123,104.94297 310.484,99.421974 299.375,69.287 289.695,51.645 279.216,31.231 257.528,14.304 249.83,27.199 c -1.039,2.672 -1.495,9.947 8.496,32.769 -7.361,-12.331 -15.714,-24.419 -26.133,-28.312 -13.03,-4.906 -21.917,1.864 -8.106,29.399 20.867,51.104 24.271,66.587 23.611,72.871 -0.414,3.756 -3.146,7.779 -8.575,4.452 -19.569,-9.463 -64.566,-18.731 -81.341,-18.731 -77.177,0 -99.01,50.212 -110.755,77.203 0,0 -10.385,26.649 -10.848,74.472 -9.482,-9.091 -18.888,-21.19 -24.914,-21.19 C 3.789,250.131 0,256.586 0,269.31 c 0,12.718 14.64,37.554 33.513,50.501 3.979,2.857 8.803,2.822 13.754,-0.103 1.735,-1.057 2.78,-1.441 3.302,-1.591 8.965,8.346 16.517,14.783 22.437,19.131 18.195,24.47 14.973,20.645 101.544,33.734 0,0 13.213,1.243 18.365,-8.917 3.844,-11.241 -1.636,-18.548 -10.28,-24.595 -2.357,-1.718 -9.188,-5.663 -11.935,-6.834 45.843,5.056 80.647,10.532 85.944,13.505 5.95,13.823 18.254,22.05 36.725,24.499 8.695,0 14.725,-3.356 17.811,-9.998 6.064,-11.973 -10.694,-22.428 -19.804,-29.177 -8.131,-5.753 -12.136,-15.583 -11.758,-17.486 0.061,-0.192 0.133,-0.474 0.69,-0.792 13.205,-7.212 25.179,-18.633 35.537,-33.939 9.529,-14.075 21.86727,-41.71669 22.70227,-55.45669 12.016,-0.774 21.98059,-1.76301 36.74687,-9.44401 14.592,-9.481 18.43886,-15.3533 18.43886,-27.9093 0.02,-17.874 -14.35,-32.552 -30.683,-56.292 z m -41.246,20.47 c -5.567,0 -10.106,-4.533 -10.106,-10.118 0,-5.569 4.539,-10.1 10.106,-10.1 5.578,0 10.105,4.53 10.105,10.1 0,5.579 -4.527,10.118 -10.105,10.118 z"
           id="path9"
           style="fill:#ffffff;fill-opacity:1;stroke:#ffffff;stroke-opacity:1"
           inkscape:connector-curvature="0"
           sodipodi:nodetypes="cccccccccscccscccccccccccccccccccsssss" /></g></g></g><g
     id="g11"
     transform="translate(0,-44.407169)" /><g
     id="g13"
     transform="translate(0,-44.407169)" /><g
     id="g15"
     transform="translate(0,-44.407169)" /><g
     id="g17"
     transform="translate(0,-44.407169)" /><g
     id="g19"
     transform="translate(0,-44.407169)" /><g
     id="g21"
     transform="translate(0,-44.407169)" /><g
     id="g23"
     transform="translate(0,-44.407169)" /><g
     id="g25"
     transform="translate(0,-44.407169)" /><g
     id="g27"
     transform="translate(0,-44.407169)" /><g
     id="g29"
     transform="translate(0,-44.407169)" /><g
     id="g31"
     transform="translate(0,-44.407169)" /><g
     id="g33"
     transform="translate(0,-44.407169)" /><g
     id="g35"
     transform="translate(0,-44.407169)" /><g
     id="g37"
     transform="translate(0,-44.407169)" /><g
     id="g39"
     transform="translate(0,-44.407169)" /></svg>